<svg width="100" height="40" viewBox="0 0 100 40" fill="none" xmlns="http://www.w3.org/2000/svg">
<g filter="url(#filter0_d_35_2)">
<path d="M24.8163 29.9437H24.2534C24.2534 29.9377 24.2506 29.9318 24.2495 29.9261L24.2341 29.8573C24.2242 29.812 24.2135 29.7671 24.2025 29.7226C24.1978 29.7016 24.1926 29.6806 24.1875 29.6597C24.1729 29.6009 24.1575 29.5422 24.1417 29.4834L24.137 29.4666C24.1196 29.4029 24.1014 29.3396 24.0825 29.2765L24.0635 29.2155C24.0505 29.172 24.0367 29.129 24.0241 29.086C24.0166 29.0624 24.0087 29.0392 24.0012 29.016C23.9874 28.9744 23.9731 28.9329 23.9585 28.8917C23.951 28.87 23.9431 28.8479 23.9356 28.8266C23.9172 28.775 23.8983 28.7237 23.8788 28.6728C23.8745 28.6619 23.8709 28.6515 23.8666 28.6406C23.8437 28.5807 23.8196 28.5212 23.7951 28.4617C23.7864 28.44 23.7773 28.4187 23.7683 28.3974C23.7517 28.3599 23.7351 28.3188 23.7181 28.2798L23.6862 28.2076C23.6696 28.1702 23.6526 28.1328 23.6352 28.0953C23.6246 28.0721 23.6135 28.0486 23.6025 28.0254C23.5823 27.9823 23.563 27.9397 23.5405 27.8974C23.5322 27.8813 23.5247 27.8648 23.5164 27.8483C23.4884 27.7926 23.4596 27.7361 23.4304 27.6822L23.3909 27.6122L23.3352 27.5108L23.2918 27.4359C23.2736 27.4045 23.2555 27.373 23.2369 27.3416C23.2223 27.3162 23.2073 27.2907 23.1923 27.2668C23.1718 27.2327 23.1529 27.1994 23.1303 27.1657L23.0735 27.0744C23.0467 27.0325 23.0198 26.9902 22.9922 26.9487C22.9748 26.9225 22.9575 26.8966 22.9397 26.8708C22.9219 26.845 22.9026 26.8154 22.8836 26.7881C22.8647 26.7608 22.8442 26.7335 22.8268 26.7065C22.8094 26.6796 22.7905 26.6553 22.7719 26.6317C22.7534 26.6081 22.7324 26.5767 22.7123 26.5493L22.6567 26.4745C22.6172 26.4247 22.5809 26.3749 22.5422 26.3248L22.4881 26.2563C22.4652 26.2275 22.4415 26.199 22.4182 26.1706L22.3661 26.1077C22.342 26.0789 22.3176 26.0505 22.2931 26.0217L22.2418 25.9625L22.1652 25.8757L22.1198 25.8256C22.0254 25.7219 21.9287 25.6197 21.8297 25.5202L21.7862 25.4764L21.6954 25.3877L21.6508 25.345C21.6192 25.3147 21.5877 25.2848 21.5557 25.2552L21.5229 25.2253C21.4112 25.1224 21.2963 25.0221 21.1795 24.9259L21.1475 24.8993C21.1115 24.8694 21.0752 24.8398 21.0386 24.8106L21.0023 24.7814C20.9628 24.7515 20.9269 24.7219 20.8886 24.6923L20.8692 24.6777C20.7401 24.5789 20.6079 24.4828 20.4745 24.3903L20.4559 24.3772C20.4137 24.3484 20.3714 24.32 20.3288 24.2919L20.3008 24.2736C20.2574 24.2447 20.2135 24.2167 20.1697 24.1886L20.1622 24.1841C20.017 24.0921 19.8689 24.0039 19.7181 23.9195L19.7122 23.9158C19.6645 23.8892 19.6167 23.8634 19.5689 23.8376L19.548 23.8263C19.2938 23.6904 19.0327 23.5656 18.7648 23.4521L18.7482 23.445C18.6776 23.415 18.6065 23.3862 18.5347 23.3578H19.9475C20.1776 23.3578 20.3643 23.1067 20.3643 22.7964C20.3643 22.4862 20.1776 22.2351 19.9475 22.2351H19.5267C19.5527 22.1722 19.5816 22.1011 19.6127 22.021C20.0106 21.786 20.7109 21.2852 21.4057 20.3653L21.4112 20.3582C21.4639 20.2894 21.5156 20.2181 21.5664 20.1445L21.5766 20.1299C21.6271 20.0577 21.6777 19.9832 21.7274 19.9054L21.7408 19.8848C21.7645 19.8474 21.7882 19.81 21.8119 19.7725C21.8119 19.7725 21.8119 19.7695 21.8147 19.7677C21.8391 19.7302 21.8632 19.6891 21.8873 19.649L21.9027 19.6232C21.9232 19.5888 21.9441 19.5536 21.9643 19.5181C21.9682 19.5117 21.9722 19.5053 21.9757 19.4986C21.999 19.4582 22.0223 19.417 22.0452 19.3755L22.061 19.3466C22.0799 19.3122 22.0985 19.2774 22.117 19.2422C22.1226 19.2325 22.1281 19.2224 22.1332 19.2123C22.1553 19.17 22.1774 19.1273 22.1995 19.0839L22.2149 19.0536C22.2323 19.0184 22.2501 18.9825 22.2674 18.9466L22.2864 18.9092C22.3077 18.865 22.3286 18.8201 22.3495 18.7748L22.3626 18.746C22.3799 18.7086 22.3969 18.6711 22.4139 18.6337L22.434 18.5888C22.4537 18.5435 22.4735 18.4979 22.4924 18.4518C22.496 18.4436 22.4995 18.435 22.5027 18.4268C22.5205 18.3845 22.5378 18.3414 22.5552 18.298L22.5749 18.2486C22.5911 18.2074 22.6073 18.1659 22.6231 18.1244L22.6349 18.0929C22.6535 18.0435 22.6716 17.993 22.6898 17.9432L22.7088 17.8901C22.723 17.8504 22.7368 17.81 22.7506 17.7696C22.7557 17.7546 22.7609 17.7396 22.7656 17.7247C22.783 17.673 22.8003 17.6203 22.8173 17.5675C22.8228 17.5492 22.8288 17.5301 22.8343 17.5128L22.8738 17.3897C22.8789 17.3718 22.8844 17.3523 22.8896 17.3362C22.9057 17.2819 22.9219 17.2266 22.9373 17.1708C22.9424 17.1532 22.9472 17.1352 22.9519 17.1173C22.9638 17.0742 22.9756 17.0312 22.9871 16.9874C22.9922 16.9676 22.9973 16.9477 23.0028 16.9279C23.0175 16.8703 23.0321 16.8123 23.0463 16.7535L23.0581 16.7045C23.0692 16.6577 23.0802 16.6105 23.0909 16.563L23.1051 16.4994C23.1185 16.4384 23.1319 16.3774 23.1446 16.3153C23.1473 16.3033 23.1497 16.2909 23.1521 16.2778C23.1631 16.2243 23.1738 16.1701 23.184 16.1158C23.1884 16.0937 23.1923 16.0716 23.1967 16.0496C23.2069 15.9938 23.2168 15.9373 23.2267 15.8815C23.2286 15.8695 23.231 15.8579 23.233 15.8463C23.244 15.7805 23.2548 15.7141 23.2654 15.6472C23.2689 15.6248 23.2725 15.6023 23.2756 15.5795C23.2839 15.5252 23.2918 15.4706 23.2997 15.4152L23.3068 15.3643C23.3163 15.2955 23.3254 15.2262 23.334 15.1559C23.3368 15.1338 23.3392 15.1117 23.3419 15.0892C23.3488 15.0334 23.3551 14.9772 23.3609 14.9208C23.3633 14.9006 23.3656 14.8808 23.3676 14.8606C23.3752 14.7882 23.3823 14.7153 23.3889 14.6417C23.3889 14.6211 23.3925 14.6005 23.394 14.5795C23.3992 14.5204 23.4043 14.4609 23.4087 14.401C23.4087 14.3789 23.4122 14.3569 23.4138 14.3348C23.4193 14.2584 23.4244 14.1816 23.4292 14.1042C23.4292 14.0867 23.4292 14.0668 23.4319 14.0511C23.4355 13.9867 23.439 13.922 23.4418 13.8569C23.4418 13.8333 23.4418 13.8097 23.445 13.7861C23.4481 13.7057 23.4513 13.6248 23.4537 13.5429C23.4537 13.5316 23.4537 13.52 23.4537 13.5084C23.4558 13.4356 23.4573 13.362 23.4584 13.2876C23.4584 13.2633 23.4584 13.239 23.4584 13.2147C23.4584 13.1348 23.4584 13.0545 23.4584 12.9737V12.9549C23.4584 12.8689 23.4584 12.7817 23.4584 12.693V12.6181C23.4584 12.5433 23.4552 12.4647 23.4533 12.3868V12.3445C23.4505 12.2547 23.4469 12.1638 23.4434 12.0725C23.4434 12.0489 23.441 12.0249 23.4402 12.0014C23.4368 11.9245 23.4329 11.8472 23.4284 11.7693C23.4284 11.7502 23.4284 11.7319 23.4252 11.7113C23.4197 11.6178 23.4136 11.5235 23.4071 11.4284L23.4023 11.3622C23.3964 11.2828 23.3905 11.2031 23.3838 11.1226C23.3838 11.0994 23.3802 11.0762 23.3783 11.053C23.37 10.9557 23.3609 10.8573 23.3514 10.7585C23.3514 10.7398 23.3475 10.7211 23.3459 10.702C23.3376 10.6178 23.3285 10.5328 23.3194 10.4471C23.3167 10.4213 23.3139 10.3959 23.3108 10.37C23.2997 10.2682 23.2879 10.1661 23.2752 10.0624C23.2752 10.0497 23.2717 10.037 23.2701 10.025C23.2588 9.93217 23.2468 9.83886 23.2342 9.74505C23.2302 9.71736 23.2267 9.68966 23.2227 9.66197C23.208 9.55568 23.1929 9.44852 23.1773 9.34049C21.5983 -1.31572 10.4088 0.413656 10.4088 0.413656L10.7672 2.70328L4 9.48083L4.29567 12.0979L6.85917 13.5949C6.97345 13.3195 7.12017 13.0573 7.29655 12.8131C8.95055 11.0044 12.1595 9.5845 13.0781 9.28997C13.262 9.23121 13.3666 9.20165 13.3666 9.20165C8.97266 14.593 9.47241 20.7695 9.66821 22.2418C9.46452 22.2792 9.30701 22.5124 9.30701 22.7968C9.30701 23.1067 9.49373 23.3582 9.72387 23.3582H11.1367C8.78699 24.2906 6.92185 26.0665 5.94848 28.2982C5.94734 28.3012 5.94602 28.3042 5.94454 28.3072C5.87269 28.4728 5.80585 28.6409 5.74401 28.8113C5.74411 28.813 5.74411 28.8148 5.74401 28.8165C5.72743 28.8629 5.71124 28.9093 5.69545 28.9561C5.68953 28.9729 5.68361 28.9898 5.67808 29.007C5.66387 29.0489 5.65071 29.0912 5.63861 29.1339C5.6315 29.1556 5.62479 29.1777 5.61808 29.1994C5.60545 29.2394 5.59321 29.2798 5.58137 29.3202L5.56005 29.3951C5.549 29.4325 5.53795 29.4726 5.52768 29.5115C5.52018 29.5392 5.51308 29.5665 5.50597 29.5942C5.4965 29.6316 5.48663 29.669 5.47755 29.7065C5.46847 29.7439 5.45978 29.7813 5.4511 29.821C5.44242 29.8606 5.43136 29.9071 5.42189 29.9505H4.85858C4.75026 29.9482 4.64255 29.9665 4.54178 30.0042C4.44101 30.0419 4.3492 30.0984 4.27175 30.1702C4.19429 30.242 4.13275 30.3278 4.09074 30.4225C4.04872 30.5172 4.02708 30.6189 4.02708 30.7216C4.02708 30.8243 4.04872 30.926 4.09074 31.0207C4.13275 31.1154 4.19429 31.2011 4.27175 31.273C4.3492 31.3448 4.44101 31.4012 4.54178 31.439C4.64255 31.4767 4.75026 31.495 4.85858 31.4927H24.8234C24.9318 31.495 25.0395 31.4767 25.1402 31.439C25.241 31.4012 25.3328 31.3448 25.4103 31.273C25.4877 31.2011 25.5493 31.1154 25.5913 31.0207C25.6333 30.926 25.6549 30.8243 25.6549 30.7216C25.6549 30.6189 25.6333 30.5172 25.5913 30.4225C25.5493 30.3278 25.4877 30.242 25.4103 30.1702C25.3328 30.0984 25.241 30.0419 25.1402 30.0042C25.0395 29.9665 24.9318 29.9482 24.8234 29.9505L24.8163 29.9437Z" fill="#595653"/>
<path d="M48.2035 29.9437H47.6406C47.6406 29.9377 47.6379 29.9318 47.6367 29.9261L47.6213 29.8573C47.6114 29.812 47.6007 29.7671 47.5897 29.7226C47.585 29.7016 47.5798 29.6806 47.5747 29.6597C47.5601 29.6009 47.5447 29.5422 47.5289 29.4834L47.5242 29.4666C47.5068 29.4029 47.4886 29.3396 47.4697 29.2765L47.4507 29.2155C47.4377 29.172 47.4239 29.129 47.4113 29.086C47.4038 29.0624 47.3959 29.0392 47.3884 29.016C47.3746 28.9744 47.3603 28.9329 47.3457 28.8917C47.3382 28.87 47.3303 28.8479 47.3228 28.8266C47.3044 28.775 47.2855 28.7237 47.266 28.6728C47.2617 28.6619 47.2581 28.6515 47.2538 28.6406C47.2309 28.5807 47.2068 28.5212 47.1823 28.4617C47.1736 28.44 47.1646 28.4187 47.1555 28.3974C47.1389 28.3599 47.1223 28.3188 47.1053 28.2798L47.0734 28.2076C47.0568 28.1702 47.0398 28.1328 47.0224 28.0953C47.0118 28.0721 47.0007 28.0486 46.9897 28.0254C46.9695 27.9823 46.9502 27.9397 46.9277 27.8974C46.9194 27.8813 46.9119 27.8648 46.9036 27.8483C46.8756 27.7926 46.8468 27.7361 46.8176 27.6822L46.7781 27.6122L46.7224 27.5108L46.679 27.4359C46.6608 27.4045 46.6427 27.373 46.6241 27.3416C46.6095 27.3162 46.5945 27.2907 46.5795 27.2668C46.559 27.2327 46.5401 27.1994 46.5176 27.1657L46.4607 27.0744C46.4339 27.0325 46.407 26.9902 46.3794 26.9487C46.362 26.9225 46.3447 26.8966 46.3269 26.8708C46.3091 26.845 46.2898 26.8154 46.2708 26.7881C46.2519 26.7608 46.2314 26.7335 46.214 26.7065C46.1966 26.6796 46.1777 26.6553 46.1591 26.6317C46.1406 26.6081 46.1196 26.5767 46.0995 26.5493L46.0439 26.4745C46.0044 26.4247 45.9681 26.3749 45.9294 26.3248L45.8753 26.2563C45.8524 26.2275 45.8287 26.199 45.8054 26.1706L45.7533 26.1077C45.7292 26.0789 45.7048 26.0505 45.6803 26.0217L45.629 25.9625L45.5524 25.8757L45.507 25.8256C45.4127 25.7219 45.3159 25.6197 45.2169 25.5202L45.1734 25.4764L45.0826 25.3877L45.038 25.345C45.0065 25.3147 44.9749 25.2848 44.9429 25.2552L44.9101 25.2253C44.7984 25.1224 44.6836 25.0221 44.5667 24.9259L44.5347 24.8993C44.4987 24.8694 44.4624 24.8398 44.4258 24.8106L44.3895 24.7814C44.35 24.7515 44.3141 24.7219 44.2758 24.6923L44.2564 24.6777C44.1273 24.5789 43.9951 24.4828 43.8617 24.3903L43.8431 24.3772C43.8009 24.3484 43.7587 24.32 43.716 24.2919L43.688 24.2736C43.6446 24.2447 43.6008 24.2167 43.5569 24.1886L43.5494 24.1841C43.4042 24.0921 43.2561 24.0039 43.1053 23.9195L43.0994 23.9158C43.0517 23.8892 43.0039 23.8634 42.9561 23.8376L42.9352 23.8263C42.681 23.6904 42.4199 23.5656 42.152 23.4521L42.1354 23.445C42.0648 23.415 41.9937 23.3862 41.9219 23.3578H43.3347C43.5648 23.3578 43.7515 23.1067 43.7515 22.7964C43.7515 22.4862 43.5648 22.2351 43.3347 22.2351H42.9139C42.9399 22.1722 42.9688 22.1011 42.9999 22.021C43.3979 21.786 44.0981 21.2852 44.7929 20.3653L44.7984 20.3582C44.8511 20.2894 44.9028 20.2181 44.9536 20.1445L44.9638 20.1299C45.0144 20.0577 45.0649 19.9832 45.1146 19.9054L45.128 19.8848C45.1517 19.8474 45.1754 19.81 45.1991 19.7725C45.1991 19.7725 45.1991 19.7695 45.2019 19.7677C45.2263 19.7302 45.2504 19.6891 45.2745 19.649L45.2899 19.6232C45.3104 19.5888 45.3313 19.5536 45.3515 19.5181C45.3554 19.5117 45.3594 19.5053 45.3629 19.4986C45.3862 19.4582 45.4095 19.417 45.4324 19.3755L45.4482 19.3466C45.4671 19.3122 45.4857 19.2774 45.5042 19.2422C45.5098 19.2325 45.5153 19.2224 45.5204 19.2123C45.5425 19.17 45.5646 19.1273 45.5867 19.0839L45.6021 19.0536C45.6195 19.0184 45.6373 18.9825 45.6546 18.9466L45.6736 18.9092C45.6949 18.865 45.7158 18.8201 45.7367 18.7748L45.7498 18.746C45.7671 18.7086 45.7841 18.6711 45.8011 18.6337L45.8212 18.5888C45.841 18.5435 45.8607 18.4979 45.8796 18.4518C45.8832 18.4436 45.8867 18.435 45.8899 18.4268C45.9077 18.3845 45.925 18.3414 45.9424 18.298L45.9621 18.2486C45.9783 18.2074 45.9945 18.1659 46.0103 18.1244L46.0221 18.0929C46.0407 18.0435 46.0589 17.993 46.077 17.9432L46.096 17.8901C46.1102 17.8504 46.124 17.81 46.1378 17.7696C46.1429 17.7546 46.1481 17.7396 46.1528 17.7247C46.1702 17.673 46.1875 17.6203 46.2045 17.5675C46.21 17.5492 46.216 17.5301 46.2215 17.5128L46.261 17.3897C46.2661 17.3718 46.2716 17.3523 46.2768 17.3362C46.2929 17.2819 46.3091 17.2266 46.3245 17.1708C46.3297 17.1532 46.3344 17.1352 46.3391 17.1173C46.351 17.0742 46.3628 17.0312 46.3743 16.9874C46.3794 16.9676 46.3845 16.9477 46.3901 16.9279C46.4047 16.8703 46.4193 16.8123 46.4335 16.7535L46.4453 16.7045C46.4564 16.6577 46.4674 16.6105 46.4781 16.563L46.4923 16.4994C46.5057 16.4384 46.5191 16.3774 46.5318 16.3153C46.5345 16.3033 46.5369 16.2909 46.5393 16.2778C46.5503 16.2243 46.561 16.1701 46.5712 16.1158C46.5756 16.0937 46.5795 16.0716 46.5839 16.0496C46.5941 15.9938 46.604 15.9373 46.6139 15.8815C46.6159 15.8695 46.6182 15.8579 46.6202 15.8463C46.6312 15.7805 46.642 15.7141 46.6526 15.6472C46.6561 15.6248 46.6597 15.6023 46.6628 15.5795C46.6711 15.5252 46.679 15.4706 46.6869 15.4152L46.694 15.3643C46.7035 15.2955 46.7126 15.2262 46.7212 15.1559C46.724 15.1338 46.7264 15.1117 46.7291 15.0892C46.736 15.0334 46.7423 14.9772 46.7481 14.9208C46.7505 14.9006 46.7528 14.8808 46.7548 14.8606C46.7624 14.7882 46.7695 14.7153 46.7761 14.6417C46.7761 14.6211 46.7797 14.6005 46.7813 14.5795C46.7864 14.5204 46.7915 14.4609 46.7959 14.401C46.7959 14.3789 46.7994 14.3569 46.801 14.3348C46.8065 14.2584 46.8116 14.1816 46.8164 14.1042C46.8164 14.0867 46.8164 14.0668 46.8191 14.0511C46.8227 13.9867 46.8263 13.922 46.829 13.8569C46.829 13.8333 46.829 13.8097 46.8322 13.7861C46.8353 13.7057 46.8385 13.6248 46.8409 13.5429C46.8409 13.5316 46.8409 13.52 46.8409 13.5084C46.843 13.4356 46.8445 13.362 46.8456 13.2876C46.8456 13.2633 46.8456 13.239 46.8456 13.2147C46.8456 13.1348 46.8456 13.0545 46.8456 12.9737V12.9549C46.8456 12.8689 46.8456 12.7817 46.8456 12.693V12.6181C46.8456 12.5433 46.8424 12.4647 46.8405 12.3868V12.3445C46.8377 12.2547 46.8341 12.1638 46.8306 12.0725C46.8306 12.0489 46.8282 12.0249 46.8274 12.0014C46.824 11.9245 46.8201 11.8472 46.8156 11.7693C46.8156 11.7502 46.8156 11.7319 46.8124 11.7113C46.8069 11.6178 46.8009 11.5235 46.7943 11.4284L46.7895 11.3622C46.7836 11.2828 46.7777 11.2031 46.771 11.1226C46.771 11.0994 46.7674 11.0762 46.7655 11.053C46.7572 10.9557 46.7481 10.8573 46.7386 10.7585C46.7386 10.7398 46.7347 10.7211 46.7331 10.702C46.7248 10.6178 46.7157 10.5328 46.7066 10.4471C46.7039 10.4213 46.7011 10.3959 46.698 10.37C46.6869 10.2682 46.6751 10.1661 46.6624 10.0624C46.6624 10.0497 46.6589 10.037 46.6573 10.025C46.646 9.93217 46.634 9.83886 46.6214 9.74505C46.6174 9.71736 46.6139 9.68966 46.6099 9.66197C46.5952 9.55569 46.5801 9.44852 46.5645 9.34049C44.9855 -1.31572 33.796 0.413656 33.796 0.413656L34.1544 2.70328L27.3872 9.48083L27.6829 12.0979L30.2464 13.5949C30.3607 13.3195 30.5074 13.0573 30.6838 12.8131C32.3378 11.0044 35.5467 9.5845 36.4653 9.28997C36.6492 9.23121 36.7538 9.20165 36.7538 9.20165C32.3599 14.593 32.8596 20.7695 33.0554 22.2418C32.8517 22.2792 32.6942 22.5124 32.6942 22.7968C32.6942 23.1067 32.8809 23.3582 33.1111 23.3582H34.5239C32.1742 24.2906 30.3091 26.0665 29.3357 28.2982C29.3345 28.3012 29.3332 28.3042 29.3317 28.3072C29.2599 28.4728 29.1931 28.6409 29.1312 28.8113C29.1313 28.813 29.1313 28.8148 29.1312 28.8165C29.1146 28.8629 29.0984 28.9093 29.0827 28.9561C29.0767 28.9729 29.0708 28.9898 29.0653 29.007C29.0511 29.0489 29.0379 29.0912 29.0258 29.1339C29.0187 29.1556 29.012 29.1777 29.0053 29.1994C28.9927 29.2394 28.9804 29.2798 28.9686 29.3202L28.9473 29.3951C28.9362 29.4325 28.9252 29.4726 28.9149 29.5115C28.9074 29.5392 28.9003 29.5665 28.8932 29.5942C28.8837 29.6316 28.8738 29.669 28.8648 29.7065C28.8557 29.7439 28.847 29.7813 28.8383 29.821C28.8296 29.8606 28.8186 29.9071 28.8091 29.9505H28.2458C28.1375 29.9482 28.0298 29.9665 27.929 30.0042C27.8282 30.0419 27.7364 30.0984 27.659 30.1702C27.5815 30.242 27.52 30.3278 27.4779 30.4225C27.4359 30.5172 27.4143 30.6189 27.4143 30.7216C27.4143 30.8243 27.4359 30.926 27.4779 31.0207C27.52 31.1154 27.5815 31.2011 27.659 31.273C27.7364 31.3448 27.8282 31.4012 27.929 31.439C28.0298 31.4767 28.1375 31.495 28.2458 31.4927H48.2106C48.319 31.495 48.4267 31.4767 48.5274 31.439C48.6282 31.4012 48.72 31.3448 48.7975 31.273C48.8749 31.2011 48.9365 31.1154 48.9785 31.0207C49.0205 30.926 49.0421 30.8243 49.0421 30.7216C49.0421 30.6189 49.0205 30.5172 48.9785 30.4225C48.9365 30.3278 48.8749 30.242 48.7975 30.1702C48.72 30.0984 48.6282 30.0419 48.5274 30.0042C48.4267 29.9665 48.319 29.9482 48.2106 29.9505L48.2035 29.9437Z" fill="#595653"/>
<path d="M71.5912 29.9437H71.0283C71.0283 29.9377 71.0256 29.9318 71.0244 29.9261L71.009 29.8573C70.9991 29.812 70.9884 29.7671 70.9774 29.7226C70.9727 29.7016 70.9675 29.6806 70.9624 29.6597C70.9478 29.6009 70.9324 29.5422 70.9166 29.4834L70.9119 29.4666C70.8945 29.4029 70.8763 29.3396 70.8574 29.2765L70.8384 29.2155C70.8254 29.172 70.8116 29.129 70.799 29.086C70.7915 29.0624 70.7836 29.0392 70.7761 29.016C70.7623 28.9744 70.748 28.9329 70.7334 28.8917C70.7259 28.87 70.718 28.8479 70.7105 28.8266C70.6921 28.775 70.6732 28.7237 70.6537 28.6728C70.6494 28.6619 70.6458 28.6515 70.6415 28.6406C70.6186 28.5807 70.5945 28.5212 70.57 28.4617C70.5613 28.44 70.5522 28.4187 70.5432 28.3974C70.5266 28.3599 70.51 28.3188 70.493 28.2798L70.4611 28.2076C70.4445 28.1702 70.4275 28.1328 70.4101 28.0953C70.3995 28.0721 70.3884 28.0486 70.3774 28.0254C70.3572 27.9823 70.3379 27.9397 70.3154 27.8974C70.3071 27.8813 70.2996 27.8648 70.2913 27.8483C70.2633 27.7926 70.2345 27.7361 70.2053 27.6822L70.1658 27.6122L70.1101 27.5108L70.0667 27.4359C70.0485 27.4045 70.0304 27.373 70.0118 27.3416C69.9972 27.3162 69.9822 27.2907 69.9672 27.2668C69.9467 27.2327 69.9278 27.1994 69.9053 27.1657L69.8484 27.0744C69.8216 27.0325 69.7947 26.9902 69.7671 26.9487C69.7497 26.9225 69.7324 26.8966 69.7146 26.8708C69.6968 26.845 69.6775 26.8154 69.6585 26.7881C69.6396 26.7608 69.6191 26.7335 69.6017 26.7065C69.5843 26.6796 69.5654 26.6553 69.5468 26.6317C69.5283 26.6081 69.5073 26.5767 69.4872 26.5493L69.4316 26.4745C69.3921 26.4247 69.3558 26.3749 69.3171 26.3248L69.263 26.2563C69.2401 26.2275 69.2164 26.199 69.1931 26.1706L69.141 26.1077C69.1169 26.0789 69.0925 26.0505 69.068 26.0217L69.0167 25.9625L68.9401 25.8757L68.8947 25.8256C68.8003 25.7219 68.7036 25.6197 68.6046 25.5202L68.5611 25.4764L68.4703 25.3877L68.4257 25.345C68.3942 25.3147 68.3626 25.2848 68.3306 25.2552L68.2978 25.2253C68.1861 25.1224 68.0712 25.0221 67.9544 24.9259L67.9224 24.8993C67.8864 24.8694 67.8501 24.8398 67.8135 24.8106L67.7772 24.7814C67.7377 24.7515 67.7018 24.7219 67.6635 24.6923L67.6441 24.6777C67.515 24.5789 67.3828 24.4828 67.2494 24.3903L67.2308 24.3772C67.1886 24.3484 67.1463 24.32 67.1037 24.2919L67.0757 24.2736C67.0323 24.2447 66.9884 24.2167 66.9446 24.1886L66.9371 24.1841C66.7919 24.0921 66.6438 24.0039 66.493 23.9195L66.4871 23.9158C66.4394 23.8892 66.3916 23.8634 66.3438 23.8376L66.3229 23.8263C66.0687 23.6904 65.8076 23.5656 65.5397 23.4521L65.5231 23.445C65.4525 23.415 65.3814 23.3862 65.3096 23.3578H66.7224C66.9525 23.3578 67.1392 23.1067 67.1392 22.7964C67.1392 22.4862 66.9525 22.2351 66.7224 22.2351H66.3016C66.3276 22.1722 66.3565 22.1011 66.3876 22.021C66.7855 21.786 67.4858 21.2852 68.1806 20.3653L68.1861 20.3582C68.2388 20.2894 68.2905 20.2181 68.3413 20.1445L68.3515 20.1299C68.402 20.0577 68.4526 19.9832 68.5023 19.9054L68.5157 19.8848C68.5394 19.8474 68.5631 19.81 68.5868 19.7725C68.5868 19.7725 68.5868 19.7695 68.5896 19.7677C68.614 19.7302 68.6381 19.6891 68.6622 19.649L68.6776 19.6232C68.6981 19.5888 68.719 19.5536 68.7392 19.5181C68.7431 19.5117 68.7471 19.5053 68.7506 19.4986C68.7739 19.4582 68.7972 19.417 68.8201 19.3755L68.8359 19.3466C68.8548 19.3122 68.8734 19.2774 68.8919 19.2422C68.8975 19.2325 68.903 19.2224 68.9081 19.2123C68.9302 19.17 68.9523 19.1273 68.9744 19.0839L68.9898 19.0536C69.0072 19.0184 69.025 18.9825 69.0423 18.9466L69.0613 18.9092C69.0826 18.865 69.1035 18.8201 69.1244 18.7748L69.1375 18.746C69.1548 18.7086 69.1718 18.6711 69.1888 18.6337L69.2089 18.5888C69.2287 18.5435 69.2484 18.4979 69.2673 18.4518C69.2709 18.4436 69.2744 18.435 69.2776 18.4268C69.2954 18.3845 69.3127 18.3414 69.3301 18.298L69.3498 18.2486C69.366 18.2074 69.3822 18.1659 69.398 18.1244L69.4098 18.0929C69.4284 18.0435 69.4466 17.993 69.4647 17.9432L69.4837 17.8901C69.4979 17.8504 69.5117 17.81 69.5255 17.7696C69.5306 17.7546 69.5358 17.7396 69.5405 17.7247C69.5579 17.673 69.5752 17.6203 69.5922 17.5675C69.5977 17.5492 69.6037 17.5301 69.6092 17.5128L69.6487 17.3897C69.6538 17.3718 69.6593 17.3523 69.6645 17.3362C69.6806 17.2819 69.6968 17.2266 69.7122 17.1708C69.7174 17.1532 69.7221 17.1352 69.7268 17.1173C69.7387 17.0742 69.7505 17.0312 69.762 16.9874C69.7671 16.9676 69.7722 16.9477 69.7777 16.9279C69.7924 16.8703 69.807 16.8123 69.8212 16.7535L69.833 16.7045C69.8441 16.6577 69.8551 16.6105 69.8658 16.563L69.88 16.4994C69.8934 16.4384 69.9068 16.3774 69.9195 16.3153C69.9222 16.3033 69.9246 16.2909 69.927 16.2778C69.938 16.2243 69.9487 16.1701 69.9589 16.1158C69.9633 16.0937 69.9672 16.0716 69.9716 16.0496C69.9818 15.9938 69.9917 15.9373 70.0016 15.8815C70.0035 15.8695 70.0059 15.8579 70.0079 15.8463C70.0189 15.7805 70.0297 15.7141 70.0403 15.6472C70.0438 15.6248 70.0474 15.6023 70.0505 15.5795C70.0588 15.5252 70.0667 15.4706 70.0746 15.4152L70.0817 15.3643C70.0912 15.2955 70.1003 15.2262 70.1089 15.1559C70.1117 15.1338 70.1141 15.1117 70.1168 15.0892C70.1237 15.0334 70.13 14.9772 70.1358 14.9208C70.1382 14.9006 70.1405 14.8808 70.1425 14.8606C70.1501 14.7882 70.1572 14.7153 70.1638 14.6417C70.1638 14.6211 70.1674 14.6005 70.1689 14.5795C70.1741 14.5204 70.1792 14.4609 70.1836 14.401C70.1836 14.3789 70.1871 14.3569 70.1887 14.3348C70.1942 14.2584 70.1993 14.1816 70.2041 14.1042C70.2041 14.0867 70.2041 14.0668 70.2068 14.0511C70.2104 13.9867 70.2139 13.922 70.2167 13.8569C70.2167 13.8333 70.2167 13.8097 70.2199 13.7861C70.223 13.7057 70.2262 13.6248 70.2286 13.5429C70.2286 13.5316 70.2286 13.52 70.2286 13.5084C70.2307 13.4356 70.2322 13.362 70.2333 13.2876C70.2333 13.2633 70.2333 13.239 70.2333 13.2147C70.2333 13.1348 70.2333 13.0545 70.2333 12.9737V12.9549C70.2333 12.8689 70.2333 12.7817 70.2333 12.693V12.6181C70.2333 12.5433 70.2301 12.4647 70.2282 12.3868V12.3445C70.2254 12.2547 70.2218 12.1638 70.2183 12.0725C70.2183 12.0489 70.2159 12.0249 70.2151 12.0014C70.2117 11.9245 70.2078 11.8472 70.2033 11.7693C70.2033 11.7502 70.2033 11.7319 70.2001 11.7113C70.1946 11.6178 70.1886 11.5235 70.182 11.4284L70.1772 11.3622C70.1713 11.2828 70.1654 11.2031 70.1587 11.1226C70.1587 11.0994 70.1551 11.0762 70.1532 11.053C70.1449 10.9557 70.1358 10.8573 70.1263 10.7585C70.1263 10.7398 70.1224 10.7211 70.1208 10.702C70.1125 10.6178 70.1034 10.5328 70.0943 10.4471C70.0916 10.4213 70.0888 10.3959 70.0857 10.37C70.0746 10.2682 70.0628 10.1661 70.0501 10.0624C70.0501 10.0497 70.0466 10.037 70.045 10.025C70.0337 9.93217 70.0217 9.83886 70.0091 9.74505C70.0051 9.71736 70.0016 9.68966 69.9976 9.66197C69.9829 9.55568 69.9678 9.44852 69.9522 9.34049C68.3732 -1.31572 57.1837 0.413656 57.1837 0.413656L57.5421 2.70328L50.7749 9.48083L51.0706 12.0979L53.6341 13.5949C53.7484 13.3195 53.8951 13.0573 54.0715 12.8131C55.7255 11.0044 58.9344 9.5845 59.853 9.28997C60.0369 9.23121 60.1415 9.20165 60.1415 9.20165C55.7476 14.593 56.2473 20.7695 56.4431 22.2418C56.2394 22.2792 56.0819 22.5124 56.0819 22.7968C56.0819 23.1067 56.2686 23.3582 56.4988 23.3582H57.9116C55.5619 24.2906 53.6968 26.0665 52.7234 28.2982C52.7222 28.3012 52.7209 28.3042 52.7194 28.3072C52.6476 28.4728 52.5808 28.6409 52.5189 28.8113C52.519 28.813 52.519 28.8148 52.5189 28.8165C52.5023 28.8629 52.4861 28.9093 52.4704 28.9561C52.4644 28.9729 52.4585 28.9898 52.453 29.007C52.4388 29.0489 52.4256 29.0912 52.4135 29.1339C52.4064 29.1556 52.3997 29.1777 52.393 29.1994C52.3803 29.2394 52.3681 29.2798 52.3563 29.3202L52.335 29.3951C52.3239 29.4325 52.3128 29.4726 52.3026 29.5115C52.2951 29.5392 52.288 29.5665 52.2809 29.5942C52.2714 29.6316 52.2615 29.669 52.2525 29.7065C52.2434 29.7439 52.2347 29.7813 52.226 29.821C52.2173 29.8606 52.2063 29.9071 52.1968 29.9505H51.6335C51.5252 29.9482 51.4175 29.9665 51.3167 30.0042C51.2159 30.0419 51.1241 30.0984 51.0466 30.1702C50.9692 30.242 50.9077 30.3278 50.8656 30.4225C50.8236 30.5172 50.802 30.6189 50.802 30.7216C50.802 30.8243 50.8236 30.926 50.8656 31.0207C50.9077 31.1154 50.9692 31.2011 51.0466 31.273C51.1241 31.3448 51.2159 31.4012 51.3167 31.439C51.4175 31.4767 51.5252 31.495 51.6335 31.4927H71.5983C71.7067 31.495 71.8144 31.4767 71.9151 31.439C72.0159 31.4012 72.1077 31.3448 72.1852 31.273C72.2626 31.2011 72.3242 31.1154 72.3662 31.0207C72.4082 30.926 72.4298 30.8243 72.4298 30.7216C72.4298 30.6189 72.4082 30.5172 72.3662 30.4225C72.3242 30.3278 72.2626 30.242 72.1852 30.1702C72.1077 30.0984 72.0159 30.0419 71.9151 30.0042C71.8144 29.9665 71.7067 29.9482 71.5983 29.9505L71.5912 29.9437Z" fill="#595653"/>
<path d="M94.9784 29.9437H94.4155C94.4155 29.9377 94.4128 29.9318 94.4116 29.9261L94.3962 29.8573C94.3863 29.812 94.3757 29.7671 94.3646 29.7226C94.3599 29.7016 94.3547 29.6806 94.3496 29.6597C94.335 29.6009 94.3196 29.5422 94.3038 29.4834L94.2991 29.4666C94.2817 29.4029 94.2635 29.3396 94.2446 29.2765L94.2256 29.2155C94.2126 29.172 94.1988 29.129 94.1862 29.086C94.1787 29.0624 94.1708 29.0392 94.1633 29.016C94.1495 28.9744 94.1353 28.9329 94.1206 28.8917C94.1131 28.87 94.1052 28.8479 94.0977 28.8266C94.0793 28.775 94.0604 28.7237 94.0409 28.6728C94.0366 28.6619 94.033 28.6515 94.0287 28.6406C94.0058 28.5807 93.9817 28.5212 93.9572 28.4617C93.9485 28.44 93.9395 28.4187 93.9304 28.3974C93.9138 28.3599 93.8972 28.3188 93.8802 28.2798L93.8483 28.2076C93.8317 28.1702 93.8147 28.1328 93.7973 28.0953C93.7867 28.0721 93.7756 28.0486 93.7646 28.0254C93.7444 27.9823 93.7251 27.9397 93.7026 27.8974C93.6943 27.8813 93.6868 27.8648 93.6785 27.8483C93.6505 27.7926 93.6217 27.7361 93.5925 27.6822L93.553 27.6122L93.4973 27.5108L93.4539 27.4359C93.4358 27.4045 93.4176 27.373 93.399 27.3416C93.3844 27.3162 93.3694 27.2907 93.3544 27.2668C93.3339 27.2327 93.315 27.1994 93.2925 27.1657L93.2356 27.0744C93.2088 27.0325 93.1819 26.9902 93.1543 26.9487C93.1369 26.9225 93.1196 26.8966 93.1018 26.8708C93.084 26.845 93.0647 26.8154 93.0457 26.7881C93.0268 26.7608 93.0063 26.7335 92.9889 26.7065C92.9715 26.6796 92.9526 26.6553 92.934 26.6317C92.9155 26.6081 92.8946 26.5767 92.8744 26.5493L92.8188 26.4745C92.7793 26.4247 92.743 26.3749 92.7043 26.3248L92.6502 26.2563C92.6273 26.2275 92.6036 26.199 92.5803 26.1706L92.5282 26.1077C92.5041 26.0789 92.4797 26.0505 92.4552 26.0217L92.4039 25.9625L92.3273 25.8757L92.2819 25.8256C92.1876 25.7219 92.0908 25.6197 91.9918 25.5202L91.9483 25.4764L91.8575 25.3877L91.8129 25.345C91.7814 25.3147 91.7498 25.2848 91.7178 25.2552L91.685 25.2253C91.5733 25.1224 91.4585 25.0221 91.3416 24.9259L91.3096 24.8993C91.2736 24.8694 91.2373 24.8398 91.2007 24.8106L91.1644 24.7814C91.1249 24.7515 91.089 24.7219 91.0507 24.6923L91.0313 24.6777C90.9022 24.5789 90.77 24.4828 90.6366 24.3903L90.618 24.3772C90.5758 24.3484 90.5336 24.32 90.4909 24.2919L90.4629 24.2736C90.4195 24.2447 90.3757 24.2167 90.3318 24.1886L90.3243 24.1841C90.1791 24.0921 90.031 24.0039 89.8802 23.9195L89.8743 23.9158C89.8266 23.8892 89.7788 23.8634 89.731 23.8376L89.7101 23.8263C89.4559 23.6904 89.1948 23.5656 88.9269 23.4521L88.9103 23.445C88.8397 23.415 88.7686 23.3862 88.6968 23.3578H90.1096C90.3397 23.3578 90.5265 23.1067 90.5265 22.7964C90.5265 22.4862 90.3397 22.2351 90.1096 22.2351H89.6888C89.7148 22.1722 89.7437 22.1011 89.7748 22.021C90.1728 21.786 90.873 21.2852 91.5678 20.3653L91.5733 20.3582C91.626 20.2894 91.6777 20.2181 91.7285 20.1445L91.7387 20.1299C91.7893 20.0577 91.8398 19.9832 91.8895 19.9054L91.9029 19.8848C91.9266 19.8474 91.9503 19.81 91.974 19.7725C91.974 19.7725 91.974 19.7695 91.9768 19.7677C92.0012 19.7302 92.0253 19.6891 92.0494 19.649L92.0648 19.6232C92.0853 19.5888 92.1062 19.5536 92.1264 19.5181C92.1303 19.5117 92.1343 19.5053 92.1378 19.4986C92.1611 19.4582 92.1844 19.417 92.2073 19.3755L92.2231 19.3466C92.242 19.3122 92.2606 19.2774 92.2791 19.2422C92.2847 19.2325 92.2902 19.2224 92.2953 19.2123C92.3174 19.17 92.3395 19.1273 92.3616 19.0839L92.377 19.0536C92.3944 19.0184 92.4122 18.9825 92.4295 18.9466L92.4485 18.9092C92.4698 18.865 92.4907 18.8201 92.5116 18.7748L92.5247 18.746C92.542 18.7086 92.559 18.6711 92.576 18.6337L92.5961 18.5888C92.6159 18.5435 92.6356 18.4979 92.6545 18.4518C92.6581 18.4436 92.6616 18.435 92.6648 18.4268C92.6826 18.3845 92.6999 18.3414 92.7173 18.298L92.737 18.2486C92.7532 18.2074 92.7694 18.1659 92.7852 18.1244L92.7971 18.0929C92.8156 18.0435 92.8338 17.993 92.8519 17.9432L92.8709 17.8901C92.8851 17.8504 92.8989 17.81 92.9127 17.7696C92.9178 17.7546 92.923 17.7396 92.9277 17.7247C92.9451 17.673 92.9625 17.6203 92.9794 17.5675C92.985 17.5492 92.9909 17.5301 92.9964 17.5128L93.0359 17.3897C93.041 17.3718 93.0465 17.3523 93.0517 17.3362C93.0678 17.2819 93.084 17.2266 93.0994 17.1708C93.1046 17.1532 93.1093 17.1352 93.114 17.1173C93.1259 17.0742 93.1377 17.0312 93.1492 16.9874C93.1543 16.9676 93.1594 16.9477 93.165 16.9279C93.1796 16.8703 93.1942 16.8123 93.2084 16.7535L93.2202 16.7045C93.2313 16.6577 93.2423 16.6105 93.253 16.563L93.2672 16.4994C93.2806 16.4384 93.294 16.3774 93.3067 16.3153C93.3094 16.3033 93.3118 16.2909 93.3142 16.2778C93.3252 16.2243 93.3359 16.1701 93.3461 16.1158C93.3505 16.0937 93.3544 16.0716 93.3588 16.0496C93.369 15.9938 93.3789 15.9373 93.3888 15.8815C93.3908 15.8695 93.3931 15.8579 93.3951 15.8463C93.4061 15.7805 93.4169 15.7141 93.4275 15.6472C93.431 15.6248 93.4346 15.6023 93.4377 15.5795C93.446 15.5252 93.4539 15.4706 93.4618 15.4152L93.4689 15.3643C93.4784 15.2955 93.4875 15.2262 93.4962 15.1559C93.4989 15.1338 93.5013 15.1117 93.504 15.0892C93.5109 15.0334 93.5172 14.9772 93.523 14.9208C93.5254 14.9006 93.5277 14.8808 93.5297 14.8606C93.5373 14.7882 93.5444 14.7153 93.551 14.6417C93.551 14.6211 93.5546 14.6005 93.5562 14.5795C93.5613 14.5204 93.5664 14.4609 93.5708 14.401C93.5708 14.3789 93.5743 14.3569 93.5759 14.3348C93.5814 14.2584 93.5865 14.1816 93.5913 14.1042C93.5913 14.0866 93.5913 14.0668 93.594 14.0511C93.5976 13.9867 93.6012 13.922 93.6039 13.8569C93.6039 13.8333 93.6039 13.8097 93.6071 13.7861C93.6102 13.7057 93.6134 13.6248 93.6158 13.5429C93.6158 13.5316 93.6158 13.52 93.6158 13.5084C93.6179 13.4356 93.6194 13.362 93.6205 13.2876C93.6205 13.2633 93.6205 13.239 93.6205 13.2147C93.6205 13.1348 93.6205 13.0545 93.6205 12.9737V12.9549C93.6205 12.8689 93.6205 12.7817 93.6205 12.693V12.6181C93.6205 12.5433 93.6173 12.4647 93.6154 12.3868V12.3445C93.6126 12.2547 93.6091 12.1638 93.6055 12.0725C93.6055 12.0489 93.6031 12.0249 93.6023 12.0014C93.5989 11.9245 93.595 11.8472 93.5905 11.7693C93.5905 11.7502 93.5905 11.7319 93.5873 11.7113C93.5818 11.6178 93.5758 11.5235 93.5692 11.4284L93.5644 11.3622C93.5585 11.2828 93.5526 11.2031 93.5459 11.1226C93.5459 11.0994 93.5423 11.0762 93.5404 11.053C93.5321 10.9557 93.523 10.8573 93.5135 10.7585C93.5135 10.7398 93.5096 10.7211 93.508 10.702C93.4997 10.6178 93.4906 10.5328 93.4815 10.4471C93.4788 10.4213 93.476 10.3959 93.4729 10.37C93.4618 10.2682 93.45 10.1661 93.4373 10.0624C93.4373 10.0497 93.4338 10.037 93.4322 10.025C93.4209 9.93217 93.4089 9.83886 93.3963 9.74505C93.3923 9.71736 93.3888 9.68966 93.3848 9.66197C93.3701 9.55569 93.355 9.44852 93.3394 9.34049C91.7604 -1.31572 80.5709 0.413656 80.5709 0.413656L80.9293 2.70328L74.1621 9.48083L74.4578 12.0979L77.0213 13.5949C77.1356 13.3195 77.2823 13.0573 77.4587 12.8131C79.1127 11.0044 82.3216 9.5845 83.2402 9.28997C83.4241 9.23121 83.5287 9.20165 83.5287 9.20165C79.1348 14.593 79.6345 20.7695 79.8303 22.2418C79.6266 22.2792 79.4691 22.5124 79.4691 22.7968C79.4691 23.1067 79.6558 23.3582 79.886 23.3582H81.2988C78.9491 24.2906 77.084 26.0665 76.1106 28.2982C76.1094 28.3012 76.1081 28.3042 76.1066 28.3072C76.0348 28.4728 75.968 28.6409 75.9061 28.8113V28.8165C75.8895 28.8629 75.8734 28.9093 75.8576 28.9561C75.8516 28.9729 75.8457 28.9898 75.8402 29.007C75.826 29.0489 75.8128 29.0912 75.8007 29.1339C75.7936 29.1556 75.7869 29.1777 75.7802 29.1994C75.7676 29.2394 75.7553 29.2798 75.7435 29.3202L75.7222 29.3951C75.7111 29.4325 75.7001 29.4726 75.6898 29.5115C75.6823 29.5392 75.6752 29.5665 75.6681 29.5942C75.6586 29.6316 75.6487 29.669 75.6397 29.7065C75.6306 29.7439 75.6219 29.7813 75.6132 29.821C75.6045 29.8606 75.5935 29.9071 75.584 29.9505H75.0207C74.9124 29.9482 74.8047 29.9665 74.7039 30.0042C74.6031 30.0419 74.5113 30.0984 74.4339 30.1702C74.3564 30.242 74.2949 30.3278 74.2528 30.4225C74.2108 30.5172 74.1892 30.6189 74.1892 30.7216C74.1892 30.8243 74.2108 30.926 74.2528 31.0207C74.2949 31.1154 74.3564 31.2011 74.4339 31.273C74.5113 31.3448 74.6031 31.4012 74.7039 31.439C74.8047 31.4767 74.9124 31.495 75.0207 31.4927H94.9855C95.0939 31.495 95.2016 31.4767 95.3023 31.439C95.4031 31.4012 95.4949 31.3448 95.5724 31.273C95.6498 31.2011 95.7114 31.1154 95.7534 31.0207C95.7954 30.926 95.817 30.8243 95.817 30.7216C95.817 30.6189 95.7954 30.5172 95.7534 30.4225C95.7114 30.3278 95.6498 30.242 95.5724 30.1702C95.4949 30.0984 95.4031 30.0419 95.3023 30.0042C95.2016 29.9665 95.0939 29.9482 94.9855 29.9505L94.9784 29.9437Z" fill="#595653"/>
</g>
<defs>
<filter id="filter0_d_35_2" x="0" y="0.309814" width="99.817" height="39.1831" filterUnits="userSpaceOnUse" color-interpolation-filters="sRGB">
<feFlood flood-opacity="0" result="BackgroundImageFix"/>
<feColorMatrix in="SourceAlpha" type="matrix" values="0 0 0 0 0 0 0 0 0 0 0 0 0 0 0 0 0 0 127 0" result="hardAlpha"/>
<feOffset dy="4"/>
<feGaussianBlur stdDeviation="2"/>
<feComposite in2="hardAlpha" operator="out"/>
<feColorMatrix type="matrix" values="0 0 0 0 0 0 0 0 0 0 0 0 0 0 0 0 0 0 0.25 0"/>
<feBlend mode="normal" in2="BackgroundImageFix" result="effect1_dropShadow_35_2"/>
<feBlend mode="normal" in="SourceGraphic" in2="effect1_dropShadow_35_2" result="shape"/>
</filter>
</defs>
</svg>
