<svg width="80" height="27" viewBox="0 0 80 27" fill="none" xmlns="http://www.w3.org/2000/svg">
<path d="M18.0239 25.6586H17.5365C17.5365 25.6534 17.5341 25.6483 17.5331 25.6434L17.5197 25.5838C17.5112 25.5446 17.502 25.5057 17.4924 25.4671C17.4883 25.449 17.4839 25.4308 17.4794 25.4127C17.4668 25.3618 17.4534 25.3109 17.4398 25.2601L17.4357 25.2455C17.4206 25.1904 17.4049 25.1355 17.3885 25.0809L17.3721 25.0281C17.3608 24.9905 17.3488 24.9532 17.3379 24.9159C17.3314 24.8955 17.3246 24.8754 17.3181 24.8553C17.3061 24.8194 17.2938 24.7834 17.2812 24.7478C17.2747 24.729 17.2678 24.7098 17.2613 24.6914C17.2454 24.6467 17.229 24.6023 17.2121 24.5582C17.2084 24.5488 17.2053 24.5397 17.2015 24.5303C17.1817 24.4785 17.1609 24.427 17.1397 24.3754C17.1321 24.3566 17.1243 24.3382 17.1164 24.3197C17.1021 24.2873 17.0877 24.2517 17.073 24.218L17.0453 24.1554C17.031 24.123 17.0163 24.0906 17.0012 24.0582C16.992 24.0381 16.9824 24.0177 16.9729 23.9976C16.9554 23.9603 16.9387 23.9234 16.9192 23.8868C16.912 23.8728 16.9055 23.8586 16.8984 23.8443C16.8741 23.7961 16.8491 23.7471 16.8238 23.7005L16.7897 23.6399L16.7415 23.552L16.7039 23.4872C16.6882 23.46 16.6724 23.4328 16.6564 23.4056C16.6437 23.3835 16.6307 23.3615 16.6177 23.3408C16.6 23.3113 16.5836 23.2824 16.5641 23.2533L16.5149 23.1742C16.4916 23.1379 16.4684 23.1013 16.4445 23.0653C16.4294 23.0427 16.4144 23.0203 16.399 22.9979C16.3836 22.9756 16.3669 22.95 16.3505 22.9263C16.3341 22.9027 16.3163 22.879 16.3012 22.8557C16.2862 22.8324 16.2698 22.8113 16.2537 22.7909C16.2377 22.7705 16.2196 22.7432 16.2021 22.7196L16.1539 22.6548C16.1197 22.6117 16.0883 22.5686 16.0548 22.5252L16.008 22.4659C15.9882 22.4409 15.9676 22.4163 15.9475 22.3917L15.9024 22.3372C15.8815 22.3123 15.8603 22.2876 15.8391 22.2627L15.7947 22.2115L15.7284 22.1363L15.6891 22.0929C15.6074 22.0031 15.5237 21.9147 15.4379 21.8285L15.4003 21.7906L15.3217 21.7138L15.283 21.6768C15.2557 21.6506 15.2283 21.6247 15.2007 21.5991L15.1723 21.5731C15.0756 21.484 14.9761 21.3972 14.8749 21.3139L14.8472 21.2909C14.816 21.265 14.7846 21.2394 14.7529 21.2141L14.7215 21.1888C14.6873 21.1629 14.6562 21.1373 14.623 21.1117L14.6063 21.0991C14.4945 21.0135 14.38 20.9302 14.2645 20.8502L14.2484 20.8389C14.2118 20.8139 14.1753 20.7893 14.1384 20.765L14.1141 20.7491C14.0765 20.7241 14.0386 20.6998 14.0006 20.6755L13.9941 20.6717C13.8683 20.5919 13.7402 20.5156 13.6096 20.4426L13.6045 20.4393C13.5631 20.4163 13.5218 20.3939 13.4804 20.3716L13.4623 20.3619C13.2422 20.2441 13.0161 20.1361 12.7842 20.0378L12.7698 20.0317C12.7086 20.0058 12.6471 19.9808 12.5849 19.9562H13.8082C14.0075 19.9562 14.1691 19.7387 14.1691 19.4701C14.1691 19.2015 14.0075 18.9841 13.8082 18.9841H13.4438C13.4664 18.9296 13.4913 18.868 13.5183 18.7987C13.8629 18.5952 14.4692 18.1616 15.0708 17.3651L15.0756 17.359C15.1211 17.2994 15.1659 17.2377 15.2099 17.174L15.2188 17.1613C15.2625 17.0988 15.3063 17.0343 15.3493 16.9669L15.361 16.9491C15.3815 16.9167 15.402 16.8843 15.4225 16.8519C15.4225 16.8519 15.4225 16.8493 15.4249 16.8477C15.4461 16.8153 15.4669 16.7796 15.4878 16.7449L15.5011 16.7226C15.5189 16.6928 15.537 16.6623 15.5544 16.6315C15.5578 16.626 15.5613 16.6205 15.5643 16.6147C15.5845 16.5797 15.6047 16.544 15.6245 16.5081L15.6382 16.4831C15.6546 16.4533 15.6706 16.4232 15.6867 16.3927C15.6915 16.3843 15.6963 16.3755 15.7007 16.3668C15.7198 16.3302 15.739 16.2932 15.7581 16.2556L15.7715 16.2294C15.7865 16.1989 15.8019 16.1678 15.8169 16.1367L15.8333 16.1043C15.8518 16.0661 15.8699 16.0272 15.888 15.988L15.8993 15.963C15.9143 15.9306 15.929 15.8982 15.9437 15.8658L15.9612 15.8269C15.9782 15.7877 15.9953 15.7482 16.0117 15.7083C16.0148 15.7012 16.0179 15.6937 16.0206 15.6866C16.036 15.65 16.0511 15.6127 16.0661 15.5751L16.0832 15.5324C16.0972 15.4967 16.1112 15.4608 16.1249 15.4248L16.1351 15.3976C16.1512 15.3548 16.1669 15.3111 16.1826 15.268L16.199 15.2219C16.2114 15.1876 16.2233 15.1526 16.2353 15.1176C16.2397 15.1046 16.2442 15.0917 16.2483 15.0787C16.2633 15.034 16.2783 14.9883 16.293 14.9426C16.2978 14.9267 16.3029 14.9102 16.3077 14.8953L16.3419 14.7887C16.3464 14.7732 16.3511 14.7563 16.3556 14.7424C16.3696 14.6954 16.3836 14.6474 16.3969 14.5991C16.4014 14.5839 16.4055 14.5684 16.4096 14.5528C16.4198 14.5155 16.4301 14.4783 16.44 14.4404C16.4445 14.4232 16.4489 14.406 16.4537 14.3888C16.4663 14.3389 16.479 14.2887 16.4913 14.2378L16.5015 14.1954C16.5111 14.1549 16.5207 14.114 16.5299 14.0729L16.5422 14.0178C16.5538 13.965 16.5654 13.9122 16.5764 13.8584C16.5788 13.848 16.5808 13.8373 16.5829 13.826C16.5925 13.7796 16.6017 13.7327 16.6106 13.6857C16.6143 13.6666 16.6177 13.6474 16.6215 13.6283C16.6304 13.58 16.6389 13.5311 16.6475 13.4828C16.6492 13.4725 16.6512 13.4624 16.6529 13.4524C16.6625 13.3953 16.6719 13.3379 16.681 13.28C16.6841 13.2605 16.6871 13.2411 16.6899 13.2213C16.697 13.1743 16.7039 13.127 16.7107 13.0791L16.7169 13.035C16.7251 12.9754 16.7329 12.9154 16.7404 12.8545C16.7428 12.8354 16.7449 12.8163 16.7473 12.7968C16.7532 12.7484 16.7587 12.6998 16.7637 12.651C16.7657 12.6335 16.7678 12.6163 16.7695 12.5988C16.7761 12.5362 16.7823 12.473 16.788 12.4093C16.788 12.3915 16.791 12.3736 16.7924 12.3555C16.7968 12.3043 16.8013 12.2528 16.805 12.2009C16.805 12.1818 16.8081 12.1627 16.8095 12.1436C16.8143 12.0775 16.8187 12.0109 16.8228 11.944C16.8228 11.9287 16.8228 11.9115 16.8252 11.8979C16.8283 11.8422 16.8314 11.7861 16.8338 11.7298C16.8338 11.7093 16.8338 11.6889 16.8365 11.6685C16.8392 11.5989 16.842 11.5289 16.844 11.4579C16.844 11.4482 16.844 11.4381 16.844 11.4281C16.8458 11.365 16.8472 11.3013 16.8481 11.2369C16.8481 11.2158 16.8481 11.1948 16.8481 11.1737C16.8481 11.1046 16.8481 11.035 16.8481 10.965V10.9488C16.8481 10.8743 16.8481 10.7988 16.8481 10.722V10.6572C16.8481 10.5924 16.8454 10.5243 16.8437 10.4569V10.4203C16.8413 10.3425 16.8382 10.2638 16.8351 10.1847C16.8351 10.1643 16.8331 10.1436 16.8324 10.1232C16.8294 10.0566 16.826 9.98967 16.8221 9.92227C16.8221 9.90574 16.8221 9.88986 16.8194 9.87204C16.8146 9.79103 16.8094 9.70937 16.8037 9.62707L16.7996 9.56971C16.7945 9.50101 16.7893 9.43199 16.7835 9.36232C16.7835 9.34223 16.7804 9.32214 16.7787 9.30205C16.7716 9.2178 16.7637 9.13258 16.7555 9.04703C16.7555 9.03083 16.7521 9.01463 16.7507 8.9981C16.7435 8.92519 16.7357 8.85164 16.7278 8.77743C16.7254 8.75507 16.723 8.73304 16.7203 8.71068C16.7107 8.62254 16.7005 8.53408 16.6895 8.44432C16.6895 8.4333 16.6864 8.42228 16.6851 8.41191C16.6753 8.33155 16.6649 8.25076 16.654 8.16953C16.6506 8.14555 16.6475 8.12158 16.6441 8.0976C16.6313 8.00557 16.6182 7.91278 16.6048 7.81924C15.2376 -1.40748 5.54905 0.0899114 5.54905 0.0899114L5.8594 2.07239L0 7.94076L0.256004 10.2068L2.47563 11.5029C2.57457 11.2645 2.70161 11.0374 2.85433 10.826C4.28645 9.25993 7.06491 8.03052 7.86026 7.7755C8.01954 7.72463 8.11012 7.69903 8.11012 7.69903C4.3056 12.3672 4.73831 17.7151 4.90784 18.9899C4.73147 19.0223 4.5951 19.2242 4.5951 19.4704C4.5951 19.7387 4.75676 19.9565 4.95603 19.9565H6.17932C4.14483 20.7639 2.5299 22.3015 1.6871 24.2338C1.68611 24.2365 1.68497 24.2391 1.68368 24.2416C1.62148 24.385 1.5636 24.5305 1.51005 24.6781C1.51015 24.6796 1.51015 24.6811 1.51005 24.6826C1.4957 24.7228 1.48169 24.763 1.46801 24.8035C1.46289 24.8181 1.45776 24.8327 1.45297 24.8476C1.44067 24.8839 1.42927 24.9205 1.41879 24.9574C1.41264 24.9762 1.40683 24.9953 1.40102 25.0141C1.39008 25.0488 1.37949 25.0838 1.36923 25.1188L1.35078 25.1836C1.34121 25.216 1.33164 25.2507 1.32275 25.2844C1.31626 25.3083 1.3101 25.332 1.30395 25.356C1.29575 25.3884 1.2872 25.4208 1.27934 25.4532C1.27148 25.4856 1.26396 25.518 1.25644 25.5523C1.24892 25.5867 1.23935 25.6269 1.23115 25.6645H0.743405C0.649613 25.6625 0.556355 25.6783 0.469101 25.711C0.381846 25.7437 0.302356 25.7925 0.235293 25.8547C0.16823 25.9169 0.114942 25.9912 0.0785645 26.0732C0.0421866 26.1552 0.0234484 26.2432 0.0234484 26.3322C0.0234484 26.4211 0.0421866 26.5091 0.0785645 26.5911C0.114942 26.6731 0.16823 26.7474 0.235293 26.8096C0.302356 26.8718 0.381846 26.9206 0.469101 26.9533C0.556355 26.986 0.649613 27.0018 0.743405 26.9998H18.03C18.1238 27.0018 18.2171 26.986 18.3043 26.9533C18.3916 26.9206 18.4711 26.8718 18.5382 26.8096C18.6052 26.7474 18.6585 26.6731 18.6949 26.5911C18.7313 26.5091 18.75 26.4211 18.75 26.3322C18.75 26.2432 18.7313 26.1552 18.6949 26.0732C18.6585 25.9912 18.6052 25.9169 18.5382 25.8547C18.4711 25.7925 18.3916 25.7437 18.3043 25.711C18.2171 25.6783 18.1238 25.6625 18.03 25.6645L18.0239 25.6586Z" fill="#595653"/>
<path d="M38.2738 25.6586H37.7864C37.7864 25.6534 37.784 25.6483 37.7829 25.6434L37.7696 25.5838C37.7611 25.5446 37.7518 25.5057 37.7423 25.4671C37.7382 25.449 37.7337 25.4308 37.7293 25.4127C37.7166 25.3618 37.7033 25.3109 37.6896 25.2601L37.6855 25.2455C37.6705 25.1904 37.6548 25.1355 37.6384 25.0809L37.622 25.0281C37.6107 24.9905 37.5987 24.9532 37.5878 24.9159C37.5813 24.8955 37.5745 24.8754 37.568 24.8553C37.556 24.8194 37.5437 24.7834 37.531 24.7478C37.5246 24.729 37.5177 24.7098 37.5112 24.6914C37.4953 24.6467 37.4789 24.6023 37.462 24.5582C37.4582 24.5488 37.4552 24.5397 37.4514 24.5303C37.4316 24.4785 37.4107 24.427 37.3895 24.3754C37.382 24.3566 37.3742 24.3382 37.3663 24.3197C37.3519 24.2873 37.3376 24.2517 37.3229 24.218L37.2952 24.1554C37.2809 24.123 37.2662 24.0906 37.2511 24.0582C37.2419 24.0381 37.2323 24.0177 37.2227 23.9976C37.2053 23.9603 37.1886 23.9234 37.1691 23.8868C37.1619 23.8728 37.1554 23.8586 37.1482 23.8443C37.124 23.7961 37.099 23.7471 37.0737 23.7005L37.0395 23.6399L36.9914 23.552L36.9538 23.4872C36.938 23.46 36.9223 23.4328 36.9062 23.4056C36.8936 23.3835 36.8806 23.3615 36.8676 23.3408C36.8499 23.3113 36.8334 23.2824 36.814 23.2533L36.7647 23.1742C36.7415 23.1379 36.7183 23.1013 36.6943 23.0653C36.6793 23.0427 36.6643 23.0203 36.6489 22.9979C36.6335 22.9756 36.6167 22.95 36.6003 22.9263C36.5839 22.9027 36.5662 22.879 36.5511 22.8557C36.5361 22.8324 36.5197 22.8113 36.5036 22.7909C36.4875 22.7705 36.4694 22.7432 36.452 22.7196L36.4038 22.6548C36.3696 22.6117 36.3382 22.5686 36.3047 22.5252L36.2579 22.4659C36.238 22.4409 36.2175 22.4163 36.1974 22.3917L36.1522 22.3372C36.1314 22.3123 36.1102 22.2876 36.089 22.2627L36.0446 22.2115L35.9783 22.1363L35.939 22.0929C35.8573 22.0031 35.7735 21.9147 35.6877 21.8285L35.6502 21.7906L35.5715 21.7138L35.5329 21.6768C35.5056 21.6506 35.4782 21.6247 35.4505 21.5991L35.4222 21.5731C35.3254 21.484 35.226 21.3972 35.1248 21.3139L35.0971 21.2909C35.0659 21.265 35.0345 21.2394 35.0028 21.2141L34.9713 21.1888C34.9372 21.1629 34.9061 21.1373 34.8729 21.1117L34.8562 21.0991C34.7444 21.0135 34.6299 20.9302 34.5144 20.8502L34.4983 20.8389C34.4617 20.8139 34.4252 20.7893 34.3882 20.765L34.364 20.7491C34.3264 20.7241 34.2884 20.6998 34.2505 20.6755L34.244 20.6717C34.1182 20.5919 33.99 20.5156 33.8595 20.4426L33.8544 20.4393C33.813 20.4163 33.7716 20.3939 33.7303 20.3716L33.7122 20.3619C33.4921 20.2441 33.266 20.1361 33.034 20.0378L33.0197 20.0317C32.9585 20.0058 32.897 19.9808 32.8348 19.9562H34.0581C34.2573 19.9562 34.419 19.7387 34.419 19.4701C34.419 19.2015 34.2573 18.9841 34.0581 18.9841H33.6937C33.7163 18.9296 33.7412 18.868 33.7682 18.7987C34.1128 18.5952 34.7191 18.1616 35.3207 17.3651L35.3254 17.359C35.371 17.2994 35.4158 17.2377 35.4598 17.174L35.4687 17.1613C35.5124 17.0988 35.5562 17.0343 35.5992 16.9669L35.6108 16.9491C35.6314 16.9167 35.6519 16.8843 35.6724 16.8519C35.6724 16.8519 35.6724 16.8493 35.6748 16.8477C35.6959 16.8153 35.7168 16.7796 35.7376 16.7449L35.751 16.7226C35.7688 16.6928 35.7869 16.6623 35.8043 16.6315C35.8077 16.626 35.8111 16.6205 35.8142 16.6147C35.8344 16.5797 35.8545 16.544 35.8744 16.5081L35.888 16.4831C35.9044 16.4533 35.9205 16.4232 35.9366 16.3927C35.9414 16.3843 35.9461 16.3755 35.9506 16.3668C35.9697 16.3302 35.9889 16.2932 36.008 16.2556L36.0213 16.2294C36.0364 16.1989 36.0518 16.1678 36.0668 16.1367L36.0832 16.1043C36.1017 16.0661 36.1198 16.0272 36.1379 15.988L36.1492 15.963C36.1642 15.9306 36.1789 15.8982 36.1936 15.8658L36.211 15.8269C36.2281 15.7877 36.2452 15.7482 36.2616 15.7083C36.2647 15.7012 36.2678 15.6937 36.2705 15.6866C36.2859 15.65 36.3009 15.6127 36.316 15.5751L36.3331 15.5324C36.3471 15.4967 36.3611 15.4608 36.3748 15.4248L36.385 15.3976C36.4011 15.3548 36.4168 15.3111 36.4325 15.268L36.4489 15.2219C36.4612 15.1876 36.4732 15.1526 36.4852 15.1176C36.4896 15.1046 36.494 15.0917 36.4981 15.0787C36.5132 15.034 36.5282 14.9883 36.5429 14.9426C36.5477 14.9267 36.5528 14.9102 36.5576 14.8953L36.5918 14.7887C36.5962 14.7732 36.601 14.7563 36.6055 14.7424C36.6195 14.6954 36.6335 14.6474 36.6468 14.5991C36.6513 14.5839 36.6554 14.5684 36.6595 14.5528C36.6697 14.5155 36.68 14.4783 36.6899 14.4404C36.6943 14.4232 36.6988 14.406 36.7036 14.3888C36.7162 14.3389 36.7289 14.2887 36.7412 14.2378L36.7514 14.1954C36.761 14.1549 36.7706 14.114 36.7798 14.0729L36.7921 14.0178C36.8037 13.965 36.8153 13.9122 36.8263 13.8584C36.8287 13.848 36.8307 13.8373 36.8328 13.826C36.8423 13.7796 36.8516 13.7327 36.8604 13.6857C36.8642 13.6666 36.8676 13.6474 36.8714 13.6283C36.8803 13.58 36.8888 13.5311 36.8974 13.4828C36.8991 13.4725 36.9011 13.4624 36.9028 13.4524C36.9124 13.3953 36.9217 13.3379 36.9309 13.28C36.9339 13.2605 36.937 13.2411 36.9397 13.2213C36.9469 13.1743 36.9538 13.127 36.9606 13.0791L36.9667 13.035C36.9749 12.9754 36.9828 12.9154 36.9903 12.8545C36.9927 12.8354 36.9948 12.8163 36.9972 12.7968C37.0031 12.7484 37.0086 12.6998 37.0136 12.651C37.0156 12.6335 37.0177 12.6163 37.0194 12.5988C37.026 12.5362 37.0321 12.473 37.0378 12.4093C37.0378 12.3915 37.0409 12.3736 37.0423 12.3555C37.0467 12.3043 37.0512 12.2528 37.0549 12.2009C37.0549 12.1818 37.058 12.1627 37.0594 12.1436C37.0642 12.0775 37.0686 12.0109 37.0727 11.944C37.0727 11.9287 37.0727 11.9115 37.0751 11.8979C37.0782 11.8422 37.0812 11.7861 37.0836 11.7298C37.0836 11.7093 37.0836 11.6889 37.0864 11.6685C37.0891 11.5989 37.0918 11.5289 37.0939 11.4579C37.0939 11.4482 37.0939 11.4381 37.0939 11.4281C37.0957 11.365 37.0971 11.3013 37.098 11.2369C37.098 11.2158 37.098 11.1948 37.098 11.1737C37.098 11.1046 37.098 11.035 37.098 10.965V10.9488C37.098 10.8743 37.098 10.7988 37.098 10.722V10.6572C37.098 10.5924 37.0953 10.5243 37.0935 10.4569V10.4203C37.0912 10.3425 37.0881 10.2638 37.085 10.1847C37.085 10.1643 37.083 10.1436 37.0823 10.1232C37.0793 10.0566 37.0759 9.98967 37.072 9.92227C37.072 9.90574 37.072 9.88986 37.0693 9.87204C37.0645 9.79103 37.0593 9.70937 37.0536 9.62707L37.0495 9.56971C37.0443 9.50101 37.0392 9.43199 37.0334 9.36232C37.0334 9.34223 37.0303 9.32214 37.0286 9.30205C37.0214 9.2178 37.0136 9.13258 37.0054 9.04703C37.0054 9.03083 37.0019 9.01463 37.0006 8.9981C36.9934 8.92519 36.9855 8.85164 36.9777 8.77743C36.9753 8.75507 36.9729 8.73304 36.9702 8.71068C36.9606 8.62254 36.9503 8.53408 36.9394 8.44432C36.9394 8.4333 36.9363 8.42228 36.935 8.41191C36.9252 8.33155 36.9148 8.25076 36.9039 8.16953C36.9004 8.14555 36.8974 8.12158 36.8939 8.0976C36.8812 8.00557 36.8681 7.91278 36.8546 7.81924C35.4875 -1.40748 25.7989 0.0899114 25.7989 0.0899114L26.1093 2.07239L20.2499 7.94076L20.5059 10.2068L22.7255 11.5029C22.8245 11.2645 22.9515 11.0374 23.1042 10.826C24.5363 9.25993 27.3148 8.03052 28.1101 7.7755C28.2694 7.72463 28.36 7.69903 28.36 7.69903C24.5555 12.3672 24.9882 17.7151 25.1577 18.9899C24.9813 19.0223 24.845 19.2242 24.845 19.4704C24.845 19.7387 25.0066 19.9565 25.2059 19.9565H26.4292C24.3947 20.7639 22.7798 22.3015 21.937 24.2338C21.936 24.2365 21.9348 24.2391 21.9336 24.2416C21.8714 24.385 21.8135 24.5305 21.7599 24.6781C21.76 24.6796 21.76 24.6811 21.7599 24.6826C21.7456 24.7228 21.7316 24.763 21.7179 24.8035C21.7128 24.8181 21.7076 24.8327 21.7028 24.8476C21.6905 24.8839 21.6792 24.9205 21.6687 24.9574C21.6625 24.9762 21.6567 24.9953 21.6509 25.0141C21.64 25.0488 21.6294 25.0838 21.6191 25.1188L21.6007 25.1836C21.5911 25.216 21.5815 25.2507 21.5726 25.2844C21.5661 25.3083 21.56 25.332 21.5538 25.356C21.5456 25.3884 21.5371 25.4208 21.5292 25.4532C21.5214 25.4856 21.5138 25.518 21.5063 25.5523C21.4988 25.5867 21.4892 25.6269 21.481 25.6645H20.9933C20.8995 25.6625 20.8062 25.6783 20.719 25.711C20.6317 25.7437 20.5522 25.7925 20.4852 25.8547C20.4181 25.9169 20.3648 25.9912 20.3284 26.0732C20.2921 26.1552 20.2733 26.2432 20.2733 26.3322C20.2733 26.4211 20.2921 26.5091 20.3284 26.5911C20.3648 26.6731 20.4181 26.7474 20.4852 26.8096C20.5522 26.8718 20.6317 26.9206 20.719 26.9533C20.8062 26.986 20.8995 27.0018 20.9933 26.9998H38.2799C38.3737 27.0018 38.467 26.986 38.5542 26.9533C38.6415 26.9206 38.721 26.8718 38.788 26.8096C38.8551 26.7474 38.9084 26.6731 38.9448 26.5911C38.9811 26.5091 38.9999 26.4211 38.9999 26.3322C38.9999 26.2432 38.9811 26.1552 38.9448 26.0732C38.9084 25.9912 38.8551 25.9169 38.788 25.8547C38.721 25.7925 38.6415 25.7437 38.5542 25.711C38.467 25.6783 38.3737 25.6625 38.2799 25.6645L38.2738 25.6586Z" fill="#595653"/>
<path d="M58.5241 25.6586H58.0367C58.0367 25.6534 58.0343 25.6483 58.0333 25.6434L58.02 25.5838C58.0114 25.5446 58.0022 25.5057 57.9926 25.4671C57.9885 25.449 57.9841 25.4308 57.9797 25.4127C57.967 25.3618 57.9537 25.3109 57.94 25.2601L57.9359 25.2455C57.9209 25.1904 57.9051 25.1355 57.8887 25.0809L57.8723 25.0281C57.8611 24.9905 57.8491 24.9532 57.8382 24.9159C57.8317 24.8955 57.8248 24.8754 57.8183 24.8553C57.8064 24.8194 57.7941 24.7834 57.7814 24.7478C57.7749 24.729 57.7681 24.7098 57.7616 24.6914C57.7456 24.6467 57.7292 24.6023 57.7124 24.5582C57.7086 24.5488 57.7055 24.5397 57.7018 24.5303C57.682 24.4785 57.6611 24.427 57.6399 24.3754C57.6324 24.3566 57.6245 24.3382 57.6167 24.3197C57.6023 24.2873 57.588 24.2517 57.5733 24.218L57.5456 24.1554C57.5312 24.123 57.5165 24.0906 57.5015 24.0582C57.4923 24.0381 57.4827 24.0177 57.4731 23.9976C57.4557 23.9603 57.4389 23.9234 57.4195 23.8868C57.4123 23.8728 57.4058 23.8586 57.3986 23.8443C57.3743 23.7961 57.3494 23.7471 57.3241 23.7005L57.2899 23.6399L57.2417 23.552L57.2041 23.4872C57.1884 23.46 57.1727 23.4328 57.1566 23.4056C57.144 23.3835 57.131 23.3615 57.118 23.3408C57.1002 23.3113 57.0838 23.2824 57.0643 23.2533L57.0151 23.1742C56.9919 23.1379 56.9686 23.1013 56.9447 23.0653C56.9297 23.0427 56.9146 23.0203 56.8992 22.9979C56.8839 22.9756 56.8671 22.95 56.8507 22.9263C56.8343 22.9027 56.8165 22.879 56.8015 22.8557C56.7864 22.8324 56.77 22.8113 56.754 22.7909C56.7379 22.7705 56.7198 22.7432 56.7024 22.7196L56.6542 22.6548C56.62 22.6117 56.5885 22.5686 56.555 22.5252L56.5082 22.4659C56.4884 22.4409 56.4679 22.4163 56.4477 22.3917L56.4026 22.3372C56.3818 22.3123 56.3606 22.2876 56.3394 22.2627L56.2949 22.2115L56.2286 22.1363L56.1893 22.0929C56.1076 22.0031 56.0239 21.9147 55.9381 21.8285L55.9005 21.7906L55.8219 21.7138L55.7833 21.6768C55.7559 21.6506 55.7286 21.6247 55.7009 21.5991L55.6725 21.5731C55.5758 21.484 55.4763 21.3972 55.3752 21.3139L55.3475 21.2909C55.3163 21.265 55.2848 21.2394 55.2532 21.2141L55.2217 21.1888C55.1875 21.1629 55.1564 21.1373 55.1233 21.1117L55.1065 21.0991C54.9948 21.0135 54.8803 20.9302 54.7647 20.8502L54.7487 20.8389C54.7121 20.8139 54.6755 20.7893 54.6386 20.765L54.6143 20.7491C54.5767 20.7241 54.5388 20.6998 54.5009 20.6755L54.4944 20.6717C54.3686 20.5919 54.2404 20.5156 54.1098 20.4426L54.1047 20.4393C54.0634 20.4163 54.022 20.3939 53.9807 20.3716L53.9625 20.3619C53.7424 20.2441 53.5164 20.1361 53.2844 20.0378L53.2701 20.0317C53.2089 20.0058 53.1474 19.9808 53.0851 19.9562H54.3084C54.5077 19.9562 54.6694 19.7387 54.6694 19.4701C54.6694 19.2015 54.5077 18.9841 54.3084 18.9841H53.9441C53.9666 18.9296 53.9916 18.868 54.0186 18.7987C54.3631 18.5952 54.9695 18.1616 55.571 17.3651L55.5758 17.359C55.6214 17.2994 55.6662 17.2377 55.7101 17.174L55.719 17.1613C55.7628 17.0988 55.8065 17.0343 55.8496 16.9669L55.8612 16.9491C55.8817 16.9167 55.9022 16.8843 55.9227 16.8519C55.9227 16.8519 55.9227 16.8493 55.9251 16.8477C55.9463 16.8153 55.9672 16.7796 55.988 16.7449L56.0013 16.7226C56.0191 16.6928 56.0372 16.6623 56.0547 16.6315C56.0581 16.626 56.0615 16.6205 56.0646 16.6147C56.0847 16.5797 56.1049 16.544 56.1247 16.5081L56.1384 16.4831C56.1548 16.4533 56.1709 16.4232 56.1869 16.3927C56.1917 16.3843 56.1965 16.3755 56.201 16.3668C56.2201 16.3302 56.2392 16.2932 56.2584 16.2556L56.2717 16.2294C56.2867 16.1989 56.3021 16.1678 56.3172 16.1367L56.3336 16.1043C56.352 16.0661 56.3701 16.0272 56.3883 15.988L56.3995 15.963C56.4146 15.9306 56.4293 15.8982 56.444 15.8658L56.4614 15.8269C56.4785 15.7877 56.4956 15.7482 56.512 15.7083C56.5151 15.7012 56.5181 15.6937 56.5209 15.6866C56.5363 15.65 56.5513 15.6127 56.5663 15.5751L56.5834 15.5324C56.5974 15.4967 56.6114 15.4608 56.6251 15.4248L56.6354 15.3976C56.6514 15.3548 56.6672 15.3111 56.6829 15.268L56.6993 15.2219C56.7116 15.1876 56.7236 15.1526 56.7355 15.1176C56.74 15.1046 56.7444 15.0917 56.7485 15.0787C56.7635 15.034 56.7786 14.9883 56.7933 14.9426C56.7981 14.9267 56.8032 14.9102 56.808 14.8953L56.8422 14.7887C56.8466 14.7732 56.8514 14.7563 56.8558 14.7424C56.8698 14.6954 56.8839 14.6474 56.8972 14.5991C56.9016 14.5839 56.9057 14.5684 56.9098 14.5528C56.9201 14.5155 56.9303 14.4783 56.9403 14.4404C56.9447 14.4232 56.9491 14.406 56.9539 14.3888C56.9666 14.3389 56.9792 14.2887 56.9915 14.2378L57.0018 14.1954C57.0114 14.1549 57.0209 14.114 57.0301 14.0729L57.0425 14.0178C57.0541 13.965 57.0657 13.9122 57.0766 13.8584C57.079 13.848 57.0811 13.8373 57.0831 13.826C57.0927 13.7796 57.1019 13.7327 57.1108 13.6857C57.1146 13.6666 57.118 13.6474 57.1217 13.6283C57.1306 13.58 57.1392 13.5311 57.1477 13.4828C57.1494 13.4725 57.1515 13.4624 57.1532 13.4524C57.1628 13.3953 57.1721 13.3379 57.1812 13.28C57.1843 13.2605 57.1874 13.2411 57.1901 13.2213C57.1973 13.1743 57.2041 13.127 57.211 13.0791L57.2171 13.035C57.2253 12.9754 57.2332 12.9154 57.2407 12.8545C57.2431 12.8354 57.2451 12.8163 57.2475 12.7968C57.2535 12.7484 57.2589 12.6998 57.2639 12.651C57.266 12.6335 57.268 12.6163 57.2697 12.5988C57.2764 12.5362 57.2825 12.473 57.2882 12.4093C57.2882 12.3915 57.2913 12.3736 57.2926 12.3555C57.2971 12.3043 57.3015 12.2528 57.3053 12.2009C57.3053 12.1818 57.3084 12.1627 57.3097 12.1436C57.3145 12.0775 57.319 12.0109 57.3231 11.944C57.3231 11.9287 57.3231 11.9115 57.3255 11.8979C57.3285 11.8422 57.3316 11.7861 57.334 11.7298C57.334 11.7093 57.334 11.6889 57.3367 11.6685C57.3395 11.5989 57.3422 11.5289 57.3443 11.4579C57.3443 11.4482 57.3443 11.4381 57.3443 11.4281C57.3461 11.365 57.3474 11.3013 57.3484 11.2369C57.3484 11.2158 57.3484 11.1948 57.3484 11.1737C57.3484 11.1046 57.3484 11.035 57.3484 10.965V10.9488C57.3484 10.8743 57.3484 10.7988 57.3484 10.722V10.6572C57.3484 10.5924 57.3456 10.5243 57.3439 10.4569V10.4203C57.3415 10.3425 57.3384 10.2638 57.3354 10.1847C57.3354 10.1643 57.3333 10.1436 57.3326 10.1232C57.3297 10.0566 57.3263 9.98967 57.3224 9.92227C57.3224 9.90574 57.3224 9.88986 57.3196 9.87204C57.3149 9.79103 57.3096 9.70937 57.3039 9.62707L57.2998 9.56971C57.2947 9.50101 57.2896 9.43199 57.2838 9.36232C57.2838 9.34223 57.2807 9.32214 57.279 9.30205C57.2718 9.2178 57.2639 9.13258 57.2557 9.04703C57.2557 9.03083 57.2523 9.01463 57.2509 8.9981C57.2438 8.92519 57.2359 8.85164 57.228 8.77743C57.2257 8.75507 57.2233 8.73304 57.2205 8.71068C57.211 8.62254 57.2007 8.53408 57.1898 8.44432C57.1898 8.4333 57.1867 8.42228 57.1853 8.41191C57.1755 8.33155 57.1652 8.25076 57.1542 8.16953C57.1508 8.14555 57.1477 8.12158 57.1443 8.0976C57.1315 8.00557 57.1184 7.91278 57.105 7.81924C55.7378 -1.40748 46.0493 0.0899114 46.0493 0.0899114L46.3596 2.07239L40.5002 7.94076L40.7562 10.2068L42.9759 11.5029C43.0748 11.2645 43.2019 11.0374 43.3546 10.826C44.7867 9.25993 47.5652 8.03052 48.3605 7.7755C48.5198 7.72463 48.6104 7.69903 48.6104 7.69903C44.8058 12.3672 45.2386 17.7151 45.4081 18.9899C45.2317 19.0223 45.0953 19.2242 45.0953 19.4704C45.0953 19.7387 45.257 19.9565 45.4563 19.9565H46.6796C44.6451 20.7639 43.0301 22.3015 42.1873 24.2338C42.1864 24.2365 42.1852 24.2391 42.1839 24.2416C42.1217 24.385 42.0638 24.5305 42.0103 24.6781C42.0104 24.6796 42.0104 24.6811 42.0103 24.6826C41.9959 24.7228 41.9819 24.763 41.9683 24.8035C41.9631 24.8181 41.958 24.8327 41.9532 24.8476C41.9409 24.8839 41.9295 24.9205 41.919 24.9574C41.9129 24.9762 41.9071 24.9953 41.9013 25.0141C41.8903 25.0488 41.8797 25.0838 41.8695 25.1188L41.851 25.1836C41.8414 25.216 41.8319 25.2507 41.823 25.2844C41.8165 25.3083 41.8103 25.332 41.8042 25.356C41.796 25.3884 41.7874 25.4208 41.7796 25.4532C41.7717 25.4856 41.7642 25.518 41.7567 25.5523C41.7492 25.5867 41.7396 25.6269 41.7314 25.6645H41.2436C41.1499 25.6625 41.0566 25.6783 40.9693 25.711C40.8821 25.7437 40.8026 25.7925 40.7355 25.8547C40.6685 25.9169 40.6152 25.9912 40.5788 26.0732C40.5424 26.1552 40.5237 26.2432 40.5237 26.3322C40.5237 26.4211 40.5424 26.5091 40.5788 26.5911C40.6152 26.6731 40.6685 26.7474 40.7355 26.8096C40.8026 26.8718 40.8821 26.9206 40.9693 26.9533C41.0566 26.986 41.1499 27.0018 41.2436 26.9998H58.5303C58.6241 27.0018 58.7173 26.986 58.8046 26.9533C58.8918 26.9206 58.9713 26.8718 59.0384 26.8096C59.1055 26.7474 59.1587 26.6731 59.1951 26.5911C59.2315 26.5091 59.2502 26.4211 59.2502 26.3322C59.2502 26.2432 59.2315 26.1552 59.1951 26.0732C59.1587 25.9912 59.1055 25.9169 59.0384 25.8547C58.9713 25.7925 58.8918 25.7437 58.8046 25.711C58.7173 25.6783 58.6241 25.6625 58.5303 25.6645L58.5241 25.6586Z" fill="#595653"/>
<path d="M78.774 25.6586H78.2866C78.2866 25.6534 78.2842 25.6483 78.2832 25.6434L78.2699 25.5838C78.2613 25.5446 78.2521 25.5057 78.2425 25.4671C78.2384 25.449 78.234 25.4308 78.2295 25.4127C78.2169 25.3618 78.2036 25.3109 78.1899 25.2601L78.1858 25.2455C78.1707 25.1904 78.155 25.1355 78.1386 25.0809L78.1222 25.0281C78.1109 24.9905 78.099 24.9532 78.088 24.9159C78.0815 24.8955 78.0747 24.8754 78.0682 24.8553C78.0562 24.8194 78.0439 24.7834 78.0313 24.7478C78.0248 24.729 78.018 24.7098 78.0115 24.6914C77.9955 24.6467 77.9791 24.6023 77.9622 24.5582C77.9585 24.5488 77.9554 24.5397 77.9517 24.5303C77.9318 24.4785 77.911 24.427 77.8898 24.3754C77.8823 24.3566 77.8744 24.3382 77.8665 24.3197C77.8522 24.2873 77.8378 24.2517 77.8231 24.218L77.7955 24.1554C77.7811 24.123 77.7664 24.0906 77.7514 24.0582C77.7421 24.0381 77.7326 24.0177 77.723 23.9976C77.7056 23.9603 77.6888 23.9234 77.6693 23.8868C77.6622 23.8728 77.6557 23.8586 77.6485 23.8443C77.6242 23.7961 77.5993 23.7471 77.574 23.7005L77.5398 23.6399L77.4916 23.552L77.454 23.4872C77.4383 23.46 77.4226 23.4328 77.4065 23.4056C77.3938 23.3835 77.3809 23.3615 77.3679 23.3408C77.3501 23.3113 77.3337 23.2824 77.3142 23.2533L77.265 23.1742C77.2417 23.1379 77.2185 23.1013 77.1946 23.0653C77.1795 23.0427 77.1645 23.0203 77.1491 22.9979C77.1337 22.9756 77.117 22.95 77.1006 22.9263C77.0842 22.9027 77.0664 22.879 77.0514 22.8557C77.0363 22.8324 77.0199 22.8113 77.0039 22.7909C76.9878 22.7705 76.9697 22.7432 76.9522 22.7196L76.9041 22.6548C76.8699 22.6117 76.8384 22.5686 76.8049 22.5252L76.7581 22.4659C76.7383 22.4409 76.7178 22.4163 76.6976 22.3917L76.6525 22.3372C76.6316 22.3123 76.6104 22.2876 76.5893 22.2627L76.5448 22.2115L76.4785 22.1363L76.4392 22.0929C76.3575 22.0031 76.2738 21.9147 76.188 21.8285L76.1504 21.7906L76.0718 21.7138L76.0332 21.6768C76.0058 21.6506 75.9785 21.6247 75.9508 21.5991L75.9224 21.5731C75.8257 21.484 75.7262 21.3972 75.6251 21.3139L75.5974 21.2909C75.5661 21.265 75.5347 21.2394 75.503 21.2141L75.4716 21.1888C75.4374 21.1629 75.4063 21.1373 75.3731 21.1117L75.3564 21.0991C75.2446 21.0135 75.1301 20.9302 75.0146 20.8502L74.9985 20.8389C74.962 20.8139 74.9254 20.7893 74.8885 20.765L74.8642 20.7491C74.8266 20.7241 74.7887 20.6998 74.7507 20.6755L74.7442 20.6717C74.6185 20.5919 74.4903 20.5156 74.3597 20.4426L74.3546 20.4393C74.3132 20.4163 74.2719 20.3939 74.2305 20.3716L74.2124 20.3619C73.9923 20.2441 73.7663 20.1361 73.5343 20.0378L73.5199 20.0317C73.4588 20.0058 73.3972 19.9808 73.335 19.9562H74.5583C74.7576 19.9562 74.9192 19.7387 74.9192 19.4701C74.9192 19.2015 74.7576 18.9841 74.5583 18.9841H74.194C74.2165 18.9296 74.2415 18.868 74.2685 18.7987C74.613 18.5952 75.2193 18.1616 75.8209 17.3651L75.8257 17.359C75.8713 17.2994 75.916 17.2377 75.96 17.174L75.9689 17.1613C76.0126 17.0988 76.0564 17.0343 76.0995 16.9669L76.1111 16.9491C76.1316 16.9167 76.1521 16.8843 76.1726 16.8519C76.1726 16.8519 76.1726 16.8493 76.175 16.8477C76.1962 16.8153 76.217 16.7796 76.2379 16.7449L76.2512 16.7226C76.269 16.6928 76.2871 16.6623 76.3045 16.6315C76.308 16.626 76.3114 16.6205 76.3145 16.6147C76.3346 16.5797 76.3548 16.544 76.3746 16.5081L76.3883 16.4831C76.4047 16.4533 76.4208 16.4232 76.4368 16.3927C76.4416 16.3843 76.4464 16.3755 76.4508 16.3668C76.47 16.3302 76.4891 16.2932 76.5083 16.2556L76.5216 16.2294C76.5366 16.1989 76.552 16.1678 76.567 16.1367L76.5834 16.1043C76.6019 16.0661 76.62 16.0272 76.6381 15.988L76.6494 15.963C76.6645 15.9306 76.6791 15.8982 76.6938 15.8658L76.7113 15.8269C76.7284 15.7877 76.7455 15.7482 76.7619 15.7083C76.7649 15.7012 76.768 15.6937 76.7708 15.6866C76.7861 15.65 76.8012 15.6127 76.8162 15.5751L76.8333 15.5324C76.8473 15.4967 76.8613 15.4608 76.875 15.4248L76.8853 15.3976C76.9013 15.3548 76.917 15.3111 76.9328 15.268L76.9492 15.2219C76.9615 15.1876 76.9734 15.1526 76.9854 15.1176C76.9898 15.1046 76.9943 15.0917 76.9984 15.0787C77.0134 15.034 77.0285 14.9883 77.0432 14.9426C77.0479 14.9267 77.0531 14.9102 77.0579 14.8953L77.092 14.7887C77.0965 14.7732 77.1013 14.7563 77.1057 14.7424C77.1197 14.6954 77.1337 14.6474 77.1471 14.5991C77.1515 14.5839 77.1556 14.5684 77.1597 14.5528C77.17 14.5155 77.1802 14.4783 77.1901 14.4404C77.1946 14.4232 77.199 14.406 77.2038 14.3888C77.2165 14.3389 77.2291 14.2887 77.2414 14.2378L77.2517 14.1954C77.2612 14.1549 77.2708 14.114 77.28 14.0729L77.2923 14.0178C77.3039 13.965 77.3156 13.9122 77.3265 13.8584C77.3289 13.848 77.331 13.8373 77.333 13.826C77.3426 13.7796 77.3518 13.7327 77.3607 13.6857C77.3644 13.6666 77.3679 13.6474 77.3716 13.6283C77.3805 13.58 77.3891 13.5311 77.3976 13.4828C77.3993 13.4725 77.4014 13.4624 77.4031 13.4524C77.4126 13.3953 77.422 13.3379 77.4311 13.28C77.4342 13.2605 77.4373 13.2411 77.44 13.2213C77.4472 13.1743 77.454 13.127 77.4608 13.0791L77.467 13.035C77.4752 12.9754 77.4831 12.9154 77.4906 12.8545C77.493 12.8354 77.495 12.8163 77.4974 12.7968C77.5033 12.7484 77.5088 12.6998 77.5138 12.651C77.5159 12.6335 77.5179 12.6163 77.5196 12.5988C77.5262 12.5362 77.5324 12.473 77.5381 12.4093C77.5381 12.3915 77.5412 12.3736 77.5425 12.3555C77.547 12.3043 77.5514 12.2528 77.5552 12.2009C77.5552 12.1818 77.5582 12.1627 77.5596 12.1436C77.5644 12.0775 77.5688 12.0109 77.5729 11.944C77.5729 11.9287 77.5729 11.9115 77.5753 11.8979C77.5784 11.8422 77.5815 11.7861 77.5839 11.7298C77.5839 11.7093 77.5839 11.6889 77.5866 11.6685C77.5893 11.5989 77.5921 11.5289 77.5941 11.4579C77.5941 11.4482 77.5941 11.4381 77.5941 11.4281C77.596 11.365 77.5973 11.3013 77.5982 11.2369C77.5982 11.2158 77.5982 11.1948 77.5982 11.1737C77.5982 11.1046 77.5982 11.035 77.5982 10.965V10.9488C77.5982 10.8743 77.5982 10.7988 77.5982 10.722V10.6572C77.5982 10.5924 77.5955 10.5243 77.5938 10.4569V10.4203C77.5914 10.3425 77.5883 10.2638 77.5853 10.1847C77.5853 10.1643 77.5832 10.1436 77.5825 10.1232C77.5795 10.0566 77.5761 9.98967 77.5723 9.92227C77.5723 9.90574 77.5723 9.88986 77.5695 9.87204C77.5647 9.79103 77.5595 9.70937 77.5538 9.62707L77.5497 9.56971C77.5446 9.50101 77.5394 9.43199 77.5336 9.36232C77.5336 9.34223 77.5306 9.32214 77.5289 9.30205C77.5217 9.2178 77.5138 9.13258 77.5056 9.04703C77.5056 9.03083 77.5022 9.01463 77.5008 8.9981C77.4936 8.92519 77.4858 8.85164 77.4779 8.77743C77.4755 8.75507 77.4731 8.73304 77.4704 8.71068C77.4608 8.62254 77.4506 8.53408 77.4396 8.44432C77.4396 8.4333 77.4366 8.42228 77.4352 8.41191C77.4254 8.33155 77.415 8.25076 77.4041 8.16953C77.4007 8.14555 77.3976 8.12158 77.3942 8.0976C77.3814 8.00557 77.3683 7.91278 77.3549 7.81924C75.9877 -1.40748 66.2992 0.0899114 66.2992 0.0899114L66.6095 2.07239L60.7501 7.94076L61.0061 10.2068L63.2257 11.5029C63.3247 11.2645 63.4517 11.0374 63.6045 10.826C65.0366 9.25993 67.815 8.03052 68.6104 7.7755C68.7697 7.72463 68.8602 7.69903 68.8602 7.69903C65.0557 12.3672 65.4884 17.7151 65.658 18.9899C65.4816 19.0223 65.3452 19.2242 65.3452 19.4704C65.3452 19.7387 65.5069 19.9565 65.7062 19.9565H66.9294C64.895 20.7639 63.28 22.3015 62.4372 24.2338C62.4362 24.2365 62.4351 24.2391 62.4338 24.2416C62.3716 24.385 62.3137 24.5305 62.2602 24.6781C62.2603 24.6796 62.2603 24.6811 62.2602 24.6826C62.2458 24.7228 62.2318 24.763 62.2181 24.8035C62.213 24.8181 62.2079 24.8327 62.2031 24.8476C62.1908 24.8839 62.1794 24.9205 62.1689 24.9574C62.1628 24.9762 62.157 24.9953 62.1511 25.0141C62.1402 25.0488 62.1296 25.0838 62.1194 25.1188L62.1009 25.1836C62.0913 25.216 62.0818 25.2507 62.0729 25.2844C62.0664 25.3083 62.0602 25.332 62.0541 25.356C62.0459 25.3884 62.0373 25.4208 62.0295 25.4532C62.0216 25.4856 62.0141 25.518 62.0066 25.5523C61.999 25.5867 61.9895 25.6269 61.9813 25.6645H61.4935C61.3997 25.6625 61.3065 25.6783 61.2192 25.711C61.132 25.7437 61.0525 25.7925 60.9854 25.8547C60.9184 25.9169 60.8651 25.9912 60.8287 26.0732C60.7923 26.1552 60.7736 26.2432 60.7736 26.3322C60.7736 26.4211 60.7923 26.5091 60.8287 26.5911C60.8651 26.6731 60.9184 26.7474 60.9854 26.8096C61.0525 26.8718 61.132 26.9206 61.2192 26.9533C61.3065 26.986 61.3997 27.0018 61.4935 26.9998H78.7802C78.874 27.0018 78.9672 26.986 79.0545 26.9533C79.1417 26.9206 79.2212 26.8718 79.2883 26.8096C79.3553 26.7474 79.4086 26.6731 79.445 26.5911C79.4814 26.5091 79.5001 26.4211 79.5001 26.3322C79.5001 26.2432 79.4814 26.1552 79.445 26.0732C79.4086 25.9912 79.3553 25.9169 79.2883 25.8547C79.2212 25.7925 79.1417 25.7437 79.0545 25.711C78.9672 25.6783 78.874 25.6625 78.7802 25.6645L78.774 25.6586Z" fill="#595653"/>
</svg>
